<?xml version="1.0" standalone="no"?>
<!DOCTYPE svg PUBLIC "-//W3C//DTD SVG 20010904//EN"
 "http://www.w3.org/TR/2001/REC-SVG-20010904/DTD/svg10.dtd">
<svg version="1.0" xmlns="http://www.w3.org/2000/svg"
 width="16.000000pt" height="16.000000pt" viewBox="0 0 16.000000 16.000000"
 preserveAspectRatio="xMidYMid meet">
<metadata>
Created by potrace 1.11, written by Peter Selinger 2001-2013
</metadata>
<g transform="translate(0.000000,16.000000) scale(0.003125,-0.003125)"
fill="#000000" stroke="none">
<path d="M2365 4954 c-570 -59 -1029 -262 -1452 -642 -255 -230 -481 -573
-607 -920 l-26 -72 40 0 c39 0 39 1 56 55 10 30 21 55 24 55 3 0 14 -25 24
-55 l17 -55 57 0 56 0 -47 -42 -48 -43 20 -58 c22 -62 20 -62 -42 -14 l-37 29
-38 -29 c-61 -48 -61 -48 -45 17 16 64 12 79 -28 101 -16 8 -21 1 -39 -61 -35
-119 -60 -248 -75 -389 -15 -137 -20 -406 -9 -435 6 -15 226 -16 2394 -16
2168 0 2388 1 2394 16 8 20 8 308 0 328 -6 14 -121 16 -1200 16 l-1194 0 0
190 0 190 1169 2 1169 3 -32 105 c-17 58 -44 140 -60 183 l-28 77 -1109 0
-1109 0 0 185 0 185 1011 2 1011 3 -61 85 c-33 47 -95 127 -138 177 l-78 93
-872 0 -873 0 0 185 0 185 638 0 c739 0 691 -12 437 114 -244 121 -469 193
-725 231 -110 16 -454 28 -545 19z m-341 -139 l17 -55 62 0 c51 -1 59 -3 46
-13 -8 -7 -30 -25 -48 -40 l-33 -28 15 -59 c16 -65 16 -65 -45 -17 l-38 29
-37 -29 c-62 -48 -62 -48 -46 17 l15 59 -33 28 c-18 15 -40 33 -48 40 -13 10
-5 12 46 13 l62 0 17 55 c10 30 21 55 24 55 3 0 14 -25 24 -55z m-964 -480
l13 -55 61 0 60 0 -47 -42 -48 -43 20 -58 c22 -62 20 -62 -41 -14 l-38 29 -37
-29 c-62 -48 -63 -48 -42 19 l19 63 -21 17 c-11 10 -33 26 -47 37 l-27 20 57
1 57 0 17 55 c10 30 21 55 24 55 4 0 13 -25 20 -55z m644 0 l17 -55 62 0 c51
-1 59 -3 46 -13 -8 -7 -30 -25 -48 -40 l-33 -28 15 -59 c16 -65 16 -65 -45
-17 l-38 29 -37 -29 c-62 -48 -62 -48 -46 17 l15 59 -33 28 c-18 15 -40 33
-48 40 -13 10 -5 12 46 13 l62 0 17 55 c10 30 21 55 24 55 3 0 14 -25 24 -55z
m640 0 l17 -55 62 0 c51 -1 59 -3 46 -13 -8 -7 -30 -25 -48 -40 l-33 -28 15
-59 c16 -65 16 -65 -45 -17 l-38 29 -37 -29 c-62 -48 -62 -48 -46 17 l15 59
-33 28 c-18 15 -40 33 -48 40 -13 10 -5 12 46 13 l62 0 17 55 c10 30 21 55 24
55 3 0 14 -25 24 -55z m-1600 -480 l17 -55 62 0 c51 -1 59 -3 46 -13 -8 -7
-30 -25 -48 -40 l-33 -28 15 -59 c16 -65 16 -65 -45 -17 l-38 29 -37 -29 c-62
-48 -62 -48 -46 17 l15 59 -33 28 c-18 15 -40 33 -48 40 -13 10 -5 12 46 13
l62 0 17 55 c10 30 21 55 24 55 3 0 14 -25 24 -55z m640 0 l17 -55 62 0 c51
-1 59 -3 46 -13 -8 -7 -30 -25 -48 -40 l-33 -28 15 -59 c16 -65 16 -65 -45
-17 l-38 29 -37 -29 c-62 -48 -62 -48 -46 17 l15 59 -33 28 c-18 15 -40 33
-48 40 -13 10 -5 12 46 13 l62 0 17 55 c10 30 21 55 24 55 3 0 14 -25 24 -55z
m640 0 l17 -55 62 0 c51 -1 59 -3 46 -13 -8 -7 -30 -25 -48 -40 l-33 -28 15
-59 c16 -65 16 -65 -45 -17 l-38 29 -37 -29 c-62 -48 -62 -48 -46 17 l15 59
-33 28 c-18 15 -40 33 -48 40 -13 10 -5 12 46 13 l62 0 17 55 c10 30 21 55 24
55 3 0 14 -25 24 -55z m-960 -480 l17 -55 62 0 c51 -1 59 -3 46 -13 -8 -7 -30
-25 -48 -40 l-33 -28 15 -59 c16 -65 16 -65 -45 -17 l-38 29 -37 -29 c-62 -48
-62 -48 -46 17 l15 59 -33 28 c-18 15 -40 33 -48 40 -13 10 -5 12 46 13 l62 0
17 55 c10 30 21 55 24 55 3 0 14 -25 24 -55z m640 0 l17 -55 62 0 c51 -1 59
-3 46 -13 -8 -7 -30 -25 -48 -40 l-33 -28 15 -59 c16 -65 16 -65 -45 -17 l-38
29 -37 -29 c-62 -48 -62 -48 -46 17 l15 59 -33 28 c-18 15 -40 33 -48 40 -13
10 -5 12 46 13 l62 0 17 55 c10 30 21 55 24 55 3 0 14 -25 24 -55z m640 0 l17
-55 62 0 c51 -1 59 -3 46 -13 -8 -7 -30 -25 -48 -40 l-33 -28 15 -59 c16 -65
16 -65 -45 -17 l-38 29 -37 -29 c-62 -48 -62 -48 -46 17 l15 59 -33 28 c-18
15 -40 33 -48 40 -13 10 -5 12 46 13 l62 0 17 55 c10 30 21 55 24 55 3 0 14
-25 24 -55z m-1600 -480 l17 -55 62 0 c51 -1 59 -3 46 -13 -8 -7 -30 -25 -48
-40 l-33 -28 15 -59 c16 -65 16 -65 -45 -17 l-38 29 -37 -29 c-62 -48 -62 -48
-46 17 l15 59 -33 28 c-18 15 -40 33 -48 40 -13 10 -5 12 46 13 l62 0 17 55
c10 30 21 55 24 55 3 0 14 -25 24 -55z m640 0 l17 -55 62 0 c51 -1 59 -3 46
-13 -8 -7 -30 -25 -48 -40 l-33 -28 15 -59 c16 -65 16 -65 -45 -17 l-38 29
-37 -29 c-62 -48 -62 -48 -46 17 l15 59 -33 28 c-18 15 -40 33 -48 40 -13 10
-5 12 46 13 l62 0 17 55 c10 30 21 55 24 55 3 0 14 -25 24 -55z m640 0 l17
-55 62 0 c51 -1 59 -3 46 -13 -8 -7 -30 -25 -48 -40 l-33 -28 15 -59 c16 -65
16 -65 -45 -17 l-38 29 -37 -29 c-62 -48 -62 -48 -46 17 l15 59 -33 28 c-18
15 -40 33 -48 40 -13 10 -5 12 46 13 l62 0 17 55 c10 30 21 55 24 55 3 0 14
-25 24 -55z"/>
<path d="M240 1943 c18 -62 78 -243 95 -285 7 -17 122 -18 2225 -18 2103 0
2218 1 2225 18 17 42 77 223 95 285 l19 67 -2339 0 -2339 0 19 -67z"/>
<path d="M540 1263 c1 -14 121 -175 197 -265 l76 -88 1746 0 1747 0 71 83 c74
87 172 217 192 254 l12 23 -2021 0 c-1111 0 -2020 -3 -2020 -7z"/>
<path d="M1285 531 c8 -15 173 -107 267 -150 202 -93 441 -164 663 -198 167
-24 523 -24 690 0 222 34 461 105 663 198 94 43 259 135 267 150 4 5 -482 9
-1275 9 -793 0 -1279 -4 -1275 -9z"/>
</g>
</svg>
